<?xml version="1.0" standalone="no"?>
<!DOCTYPE svg PUBLIC "-//W3C//DTD SVG 20010904//EN"
 "http://www.w3.org/TR/2001/REC-SVG-20010904/DTD/svg10.dtd">
<svg version="1.0" xmlns="http://www.w3.org/2000/svg"
 width="296.000000pt" height="296.000000pt" viewBox="0 0 296.000000 296.000000"
 preserveAspectRatio="xMidYMid meet">
<metadata>
Created by potrace 1.11, written by Peter Selinger 2001-2013
</metadata>
<g transform="translate(0.000000,296.000000) scale(0.100000,-0.100000)"
fill="#000000" stroke="none">
<path d="M826 2289 c-466 -354 -566 -434 -550 -441 33 -13 1115 -270 1120
-266 2 3 3 260 2 572 l-3 567 -569 -432z"/>
<path d="M1560 2150 l0 -572 33 7 c94 21 1101 265 1104 268 2 2 -248 194 -554
427 -307 233 -564 427 -570 433 -10 7 -13 -106 -13 -563z"/>
<path d="M282 1671 c13 -16 268 -331 568 -700 l545 -672 3 562 c1 309 0 564
-2 567 -4 3 -1123 272 -1134 272 -2 0 7 -13 20 -29z"/>
<path d="M2122 1566 c-304 -73 -555 -135 -557 -138 -3 -3 -4 -257 -3 -565 l3
-560 525 644 c652 800 614 753 598 752 -7 0 -262 -61 -566 -133z"/>
</g>
</svg>
